<?xml version="1.0" encoding="UTF-8" standalone="no"?>
<!-- Created with Inkscape (http://www.inkscape.org/) -->

<svg
   xmlns:dc="http://purl.org/dc/elements/1.1/"
   xmlns:cc="http://creativecommons.org/ns#"
   xmlns:rdf="http://www.w3.org/1999/02/22-rdf-syntax-ns#"
   xmlns:svg="http://www.w3.org/2000/svg"
   xmlns="http://www.w3.org/2000/svg"
   xmlns:sodipodi="http://sodipodi.sourceforge.net/DTD/sodipodi-0.dtd"
   xmlns:inkscape="http://www.inkscape.org/namespaces/inkscape"
   width="71.24688"
   height="29"
   viewBox="0 0 71.24688 29"
   id="svg4136"
   version="1.1"
   inkscape:version="0.91 r13725"
   sodipodi:docname="logo.svg"
   inkscape:export-filename="/Users/markcafaro/path9.png"
   inkscape:export-xdpi="91.879997"
   inkscape:export-ydpi="91.879997">
  <defs
     id="defs4138" />
  <sodipodi:namedview
     id="base"
     pagecolor="#ffffff"
     bordercolor="#666666"
     borderopacity="1.0"
     inkscape:pageopacity="0.0"
     inkscape:pageshadow="2"
     inkscape:zoom="1.979899"
     inkscape:cx="34.438202"
     inkscape:cy="-17.766994"
     inkscape:document-units="px"
     inkscape:current-layer="text4734"
     showgrid="false"
     units="px"
     inkscape:window-width="1440"
     inkscape:window-height="856"
     inkscape:window-x="67"
     inkscape:window-y="43"
     inkscape:window-maximized="0"
     fit-margin-top="0"
     fit-margin-left="0"
     fit-margin-right="0"
     fit-margin-bottom="0" />
  <metadata
     id="metadata4141">
    <rdf:RDF>
      <cc:Work
         rdf:about="">
        <dc:format>image/svg+xml</dc:format>
        <dc:type
           rdf:resource="http://purl.org/dc/dcmitype/StillImage" />
        <dc:title></dc:title>
      </cc:Work>
    </rdf:RDF>
  </metadata>
  <g
     inkscape:label="Layer 1"
     inkscape:groupmode="layer"
     id="layer1"
     transform="translate(-31.876562,-1007.3467)">
    <g
       style="font-style:normal;font-variant:normal;font-weight:normal;font-stretch:normal;font-size:40px;line-height:125%;font-family:'Helvetica Neue';-inkscape-font-specification:'Helvetica Neue, Normal';text-align:start;letter-spacing:0px;word-spacing:0px;writing-mode:lr-tb;text-anchor:start;fill:#000000;fill-opacity:1;stroke:none;stroke-width:1px;stroke-linecap:butt;stroke-linejoin:miter;stroke-opacity:1"
       id="text4734">
      <path
         d="m 47.036562,1021.8667 3.52,0 q -0.2,-1.84 -0.96,-3.16 -0.76,-1.36 -1.96,-2.24 -1.16,-0.88 -2.72,-1.28 -1.52,-0.44 -3.28,-0.44 -2.44,0 -4.28,0.88 -1.84,0.84 -3.08,2.36 -1.2,1.48 -1.8,3.52 -0.6,2 -0.6,4.32 0,2.32 0.6,4.28 0.64,1.92 1.84,3.32 1.24,1.4 3.04,2.16 1.84,0.76 4.2,0.76 3.96,0 6.24,-2.08 2.32,-2.08 2.88,-5.92 l -3.48,0 q -0.32,2.4 -1.76,3.72 -1.4,1.32 -3.92,1.32 -1.6,0 -2.76,-0.64 -1.16,-0.64 -1.88,-1.68 -0.72,-1.08 -1.08,-2.44 -0.32,-1.36 -0.32,-2.8 0,-1.56 0.32,-3 0.32,-1.48 1.04,-2.6 0.76,-1.12 2,-1.8 1.24,-0.68 3.08,-0.68 2.16,0 3.44,1.08 1.28,1.08 1.68,3.04 z"
         style="font-style:normal;font-variant:normal;font-weight:normal;font-stretch:normal;font-size:40px;line-height:125%;font-family:'Helvetica Neue';-inkscape-font-specification:'Helvetica Neue, Normal';text-align:start;writing-mode:lr-tb;text-anchor:start;fill:#666666;fill-opacity:1"
         id="path4758"
         inkscape:connector-curvature="0" />
      <path
         d="m 58.080937,1011.5067 0,-4.16 -3.4,0 0,4.16 3.4,0 z m -3.4,3.72 0,20.68 3.4,0 0,-20.68 -3.4,0 z"
         style="font-style:normal;font-variant:normal;font-weight:normal;font-stretch:normal;font-size:40px;line-height:125%;font-family:'Helvetica Neue';-inkscape-font-specification:'Helvetica Neue, Normal';text-align:start;writing-mode:lr-tb;text-anchor:start;fill:#666666;fill-opacity:1"
         id="path4760"
         inkscape:connector-curvature="0" />
      <path
         d="m 68.107187,1015.2267 0,-6.2 -3.4,0 0,6.2 -3.52,0 0,3 3.52,0 0,13.16 q 0,1.44 0.28,2.32 0.28,0.88 0.84,1.36 0.6,0.48 1.52,0.68 0.96,0.16 2.28,0.16 l 2.6,0 0,-3 -1.56,0 q -0.8,0 -1.32,-0.04 -0.48,-0.08 -0.76,-0.28 -0.28,-0.2 -0.4,-0.56 -0.08,-0.36 -0.08,-0.96 l 0,-12.84 4.12,0 0,-3 -4.12,0 z"
         style="font-style:normal;font-variant:normal;font-weight:normal;font-stretch:normal;font-size:40px;line-height:125%;font-family:'Helvetica Neue';-inkscape-font-specification:'Helvetica Neue, Normal';text-align:start;writing-mode:lr-tb;text-anchor:start;fill:#666666;fill-opacity:1"
         id="path4762"
         inkscape:connector-curvature="0" />
      <path
         d="m 96.523437,1035.9067 6.600003,-20.68 -3.520003,0 -4.64,16.92 -0.08,0 -4.32,-16.92 -3.72,0 -4.16,16.92 -0.08,0 -4.68,-16.92 -3.76,0 6.64,20.68 3.68,0 4.16,-16.44 0.08,0 4.2,16.44 3.6,0 z"
         style="font-style:normal;font-variant:normal;font-weight:normal;font-stretch:normal;font-size:40px;line-height:125%;font-family:'Helvetica Neue';-inkscape-font-specification:'Helvetica Neue, Normal';text-align:start;writing-mode:lr-tb;text-anchor:start;fill:#666666;fill-opacity:1"
         id="path4764"
         inkscape:connector-curvature="0" />
    </g>
  </g>
</svg>
