<?xml version="1.0" encoding="UTF-8" standalone="no"?>
<!-- Created with Inkscape (http://www.inkscape.org/) -->

<svg
   xmlns:dc="http://purl.org/dc/elements/1.1/"
   xmlns:cc="http://creativecommons.org/ns#"
   xmlns:rdf="http://www.w3.org/1999/02/22-rdf-syntax-ns#"
   xmlns:svg="http://www.w3.org/2000/svg"
   xmlns="http://www.w3.org/2000/svg"
   xmlns:sodipodi="http://sodipodi.sourceforge.net/DTD/sodipodi-0.dtd"
   xmlns:inkscape="http://www.inkscape.org/namespaces/inkscape"
   width="90.000107"
   height="90.00016"
   viewBox="0 0 90.000107 90.00016"
   id="svg4136"
   version="1.1"
   inkscape:version="0.91 r13725"
   sodipodi:docname="mark.svg"
   inkscape:export-filename="/Users/markcafaro/path9.png"
   inkscape:export-xdpi="91.879997"
   inkscape:export-ydpi="91.879997">
  <defs
     id="defs4138" />
  <sodipodi:namedview
     id="base"
     pagecolor="#ffffff"
     bordercolor="#666666"
     borderopacity="1.0"
     inkscape:pageopacity="0.0"
     inkscape:pageshadow="2"
     inkscape:zoom="1.979899"
     inkscape:cx="66.314764"
     inkscape:cy="-1.751564"
     inkscape:document-units="px"
     inkscape:current-layer="text4734"
     showgrid="false"
     units="px"
     inkscape:window-width="1440"
     inkscape:window-height="856"
     inkscape:window-x="67"
     inkscape:window-y="43"
     inkscape:window-maximized="0"
     fit-margin-top="0"
     fit-margin-left="0"
     fit-margin-right="0"
     fit-margin-bottom="0" />
  <metadata
     id="metadata4141">
    <rdf:RDF>
      <cc:Work
         rdf:about="">
        <dc:format>image/svg+xml</dc:format>
        <dc:type
           rdf:resource="http://purl.org/dc/dcmitype/StillImage" />
        <dc:title></dc:title>
      </cc:Work>
    </rdf:RDF>
  </metadata>
  <g
     inkscape:label="Layer 1"
     inkscape:groupmode="layer"
     id="layer1"
     transform="translate(-22.499946,-913.37754)">
    <path
       inkscape:connector-curvature="0"
       d="m 112.30059,958.16147 c -0.36122,-0.38391 -0.72264,-0.76722 -1.08427,-1.15113 -1.50202,-1.5942 -3.21737,-3.02592 -5.00504,-4.28685 -1.66693,-1.17524 -3.41672,-2.2431 -5.26112,-3.11567 -0.0843,-0.0397 -0.16916,-0.079 -0.25385,-0.11831 1.73845,-2.49148 3.12256,-5.22141 4.19771,-8.06925 0.58205,-1.54193 1.02046,-3.11689 1.37783,-4.72324 0.0565,-0.25365 0.20138,-0.81584 0.20138,-0.81584 0,0 -0.17929,-0.0598 -0.28282,-0.0906 -0.50466,-0.15194 -1.00952,-0.30308 -1.51438,-0.45502 -2.09784,-0.62945 -4.2992,-1.01175 -6.478286,-1.21008 -2.03058,-0.18436 -4.08062,-0.23419 -6.11444,-0.0677 -0.0928,0.007 -0.18578,0.0162 -0.27856,0.0245 0.25952,-3.02693 0.0934,-6.08324 -0.39972,-9.08707 -0.26661,-1.62662 -0.67463,-3.20988 -1.16875,-4.77956 -0.0776,-0.24818 -0.23319,-0.80713 -0.23319,-0.80713 0,0 -0.18476,0.0381 -0.29072,0.063 -0.51256,0.12115 -1.02572,0.24209 -1.53889,0.36324 -2.13147,0.50365 -4.22911,1.2733 -6.21513,2.19084 -1.851081,0.85595 -3.650911,1.83751 -5.32878,2.99857 -0.07678,0.0531 -0.15235,0.10859 -0.228727,0.16227 -1.28869,-2.75181 -2.960886,-5.31582 -4.890173,-7.67115 -1.044363,-1.27532 -2.18901,-2.44266 -3.401322,-3.55489 -0.191045,-0.17605 -0.605954,-0.58286 -0.605954,-0.58286 0,0 -0.140801,0.1254 -0.21961,0.19976 -0.383912,0.36122 -0.767622,0.72285 -1.151129,1.08427 -1.594199,1.50161 -3.025919,3.21696 -4.286853,5.00504 -1.175643,1.66632 -2.243102,3.41672 -3.115667,5.26153 -0.03971,0.0843 -0.07881,0.16896 -0.118314,0.25364 -2.491682,-1.73844 -5.221411,-3.12255 -8.069251,-4.19791 -1.542335,-0.58205 -3.117287,-1.02086 -4.723236,-1.37783 -0.253646,-0.0565 -0.816245,-0.20138 -0.816245,-0.20138 0,0 -0.05936,0.1793 -0.09056,0.28282 -0.151539,0.50486 -0.303078,1.00972 -0.454617,1.51438 -0.629859,2.09784 -1.011746,4.29921 -1.210084,6.47789 -0.184764,2.03098 -0.234196,4.08081 -0.06766,6.11464 0.0075,0.0928 0.01621,0.18577 0.02451,0.27876 -3.026931,-0.25972 -6.083239,-0.0936 -9.087075,0.39951 -1.626613,0.26661 -3.209872,0.67423 -4.779557,1.16815 -0.248176,0.0784 -0.807533,0.23379 -0.807533,0.23379 0,0 0.03809,0.18476 0.06301,0.29052 0.12115,0.51276 0.242503,1.02592 0.363248,1.53889 0.503645,2.13147 1.273293,4.22911 2.191238,6.21512 0.855548,1.85109 1.837107,3.65092 2.998569,5.32919 0.05308,0.0764 0.108387,0.15195 0.162074,0.22833 -2.751811,1.28868 -5.316022,2.96088 -7.67136,4.88997 -1.275319,1.04456 -2.442655,2.18941 -3.554887,3.40172 -0.175648,0.19145 -0.582453,0.60575 -0.582453,0.60575 0,0 0.125405,0.14121 0.199756,0.22042 0.361222,0.38351 0.722849,0.76702 1.083869,1.15113 1.502019,1.5938 3.217368,3.02612 5.005043,4.28686 1.666726,1.17523 3.416719,2.2429 5.261524,3.11566 0.08428,0.0397 0.168962,0.079 0.253646,0.11812 -1.738647,2.49168 -3.122555,5.22141 -4.19751,8.06904 -0.582453,1.54214 -1.020863,3.11729 -1.37783,4.72304 -0.05652,0.25364 -0.201377,0.81584 -0.201377,0.81584 0,0 0.178889,0.0598 0.282819,0.091 0.504455,0.15154 1.009315,0.30308 1.514377,0.45502 2.097641,0.62905 4.299211,1.01175 6.477889,1.21009 2.030988,0.18435 4.080817,0.23419 6.114641,0.0673 0.09279,-0.008 0.185574,-0.0162 0.278564,-0.0245 -0.259723,3.02693 -0.0934,6.08324 0.399309,9.08708 0.267017,1.62641 0.674633,3.21027 1.168553,4.77955 0.078,0.24818 0.233386,0.80713 0.233386,0.80713 0,0 0.18517,-0.0379 0.290923,-0.0628 0.512761,-0.12115 1.025725,-0.2425 1.538891,-0.36325 2.131271,-0.50364 4.229114,-1.27329 6.215126,-2.19063 1.851086,-0.85615 3.650916,-1.83751 5.328785,-2.99918 0.07638,-0.0531 0.151944,-0.10838 0.228322,-0.16207 1.288689,2.75181 2.961089,5.31602 4.890375,7.67136 1.044161,1.2753 2.189415,2.4427 3.401727,3.5549 0.191045,0.1757 0.605751,0.5825 0.605751,0.5825 0,0 0.141207,-0.1254 0.219813,-0.1998 0.384115,-0.361 0.767217,-0.7222 1.151332,-1.0839 1.594199,-1.502 3.026121,-3.21735 4.287258,-5.00503 1.174833,-1.66672 2.242494,-3.41672 3.115262,-5.26152 0.03971,-0.0843 0.07901,-0.16896 0.118111,-0.25365 2.491683,1.73845 5.221412,3.12256 8.069453,4.19751 1.54193,0.58245 3.11729,1.02086 4.72303,1.37783 0.25365,0.0565 0.81584,0.20178 0.81584,0.20178 0,0 0.0598,-0.17929 0.0906,-0.28302 0.15195,-0.50445 0.30308,-1.00931 0.45503,-1.51458 0.62925,-2.09764 1.01174,-4.29921 1.21008,-6.47789 0.18436,-2.03098 0.2342,-4.08102 0.0677,-6.11423 -0.008,-0.093 -0.0162,-0.18598 -0.0245,-0.27897 3.02693,0.25952 6.08325,0.0934 9.087076,-0.39951 1.62641,-0.26682 3.20987,-0.67464 4.77956,-1.16876 0.24817,-0.078 0.80692,-0.23318 0.80692,-0.23318 0,0 -0.0381,-0.18517 -0.063,-0.29072 -0.12115,-0.51317 -0.24209,-1.02573 -0.36324,-1.5393 -0.50365,-2.13127 -1.2733,-4.22871 -2.19084,-6.21512 -0.85595,-1.85109 -1.8373,-3.65092 -2.99856,-5.32879 -0.0531,-0.0764 -0.10839,-0.15194 -0.16228,-0.22832 2.75202,-1.28869 5.31582,-2.96109 7.67116,-4.89058 1.27531,-1.04396 2.44265,-2.18901 3.55529,-3.40172 0.17565,-0.19125 0.58245,-0.60576 0.58245,-0.60576 0,0 -0.125,-0.14039 -0.19935,-0.219 z m -13.630806,6.50686 c -0.91227,-1.05794 -1.90214,-2.048 -2.99006,-2.9074 -1.01418,-0.80004 -2.05084,-1.53606 -3.17867,-2.16794 -0.86973,-0.48683 -1.77228,-0.87135 -2.70927,-1.20765 0.4376,0.41268 0.8833,0.81462 1.31523,1.23378 0.61426,0.59562 1.18962,1.22386 1.76255,1.86 1.27289,1.41308 2.3839,2.97365 3.38147,4.60229 -1.43557,0.7733 -2.92503,1.45522 -4.45298,2.01681 -0.82941,0.3047 -1.66592,0.57536 -2.51356,0.82354 -0.81584,0.24007 -1.6491,0.40518 -2.47528,0.60251 3.63208,0.66592 7.35694,0.188 10.83222,-1.0077 0.16227,0.3045 0.32293,0.6096 0.47892,0.91592 0.83793,1.641 1.56645,3.34075 2.217376,5.06319 0.44124,1.16693 0.85777,2.34723 1.21758,3.54273 -3.337706,0.7976 -6.773076,1.25263 -10.204176,1.37175 -0.26074,-1.37216 -0.6254,-2.72426 -1.13796,-4.01234 -0.47832,-1.20036 -1.0085,-2.35615 -1.66936,-3.46696 -0.50993,-0.85676 -1.09927,-1.6412 -1.7425,-2.40092 0.17281,0.57678 0.35798,1.14748 0.52229,1.72629 0.23419,0.82313 0.41815,1.65518 0.59623,2.49209 0.39606,1.8604 0.57961,3.767 0.62904,5.67663 -1.63066,-0.0478 -3.26193,-0.20219 -4.86647,-0.47994 -0.87053,-0.15073 -1.73034,-0.33448 -2.588922,-0.54335 -0.826171,-0.20057 -1.630665,-0.47366 -2.444276,-0.71617 2.812994,2.39282 6.277728,3.84176 9.885288,4.54374 -0.0119,0.34461 -0.0259,0.68882 -0.0438,1.03262 -0.0948,1.83994 -0.31361,3.67644 -0.61122,5.49369 -0.20138,1.23075 -0.43091,2.46129 -0.71697,3.67685 -3.28929,-0.97852 -6.492277,-2.30145 -9.523058,-3.91408 0.460088,-1.31929 0.820702,-2.6722 1.020458,-4.04435 0.18598,-1.27856 0.304699,-2.54436 0.288086,-3.8367 -0.01276,-0.99675 -0.131685,-1.97102 -0.308953,-2.95035 -0.138573,0.5859 -0.263978,1.1724 -0.410452,1.75607 -0.208468,0.83043 -0.464949,1.64242 -0.729535,2.45603 -0.58691,1.80915 -1.381072,3.55225 -2.29294,5.23073 -1.388567,-0.85677 -2.723853,-1.80571 -3.974861,-2.84886 -0.678886,-0.56584 -1.331031,-1.15538 -1.970412,-1.76518 -0.615678,-0.58711 -1.175643,-1.22569 -1.759312,-1.84298 1.239257,3.47891 3.515989,6.46634 6.289275,8.87759 -0.182535,0.29275 -0.367299,0.58407 -0.554089,0.87257 -1.002022,1.54598 -2.109797,3.02693 -3.275918,4.45216 -0.789907,0.96556 -1.604126,1.91673 -2.460078,2.82576 -2.359795,-2.49269 -4.472023,-5.24045 -6.291301,-8.15353 1.057936,-0.91207 2.048208,-1.90193 2.907402,-2.98965 0.800037,-1.01438 1.536054,-2.05125 2.16794,-3.17888 0.487032,-0.86973 0.871349,-1.77268 1.207652,-2.70927 -0.41268,0.4376 -0.814623,0.8831 -1.233787,1.31523 -0.595824,0.61447 -1.22386,1.18983 -1.859797,1.76235 -1.413081,1.27309 -2.97365,2.38391 -4.602492,3.38127 -0.773295,-1.43557 -1.455018,-2.92483 -2.016604,-4.45278 -0.304698,-0.82941 -0.575362,-1.66632 -0.82374,-2.51376 -0.239464,-0.81604 -0.405184,-1.64931 -0.602306,-2.47548 -0.665921,3.63248 -0.188006,7.35734 1.007491,10.83221 -0.304496,0.16227 -0.6096,0.32293 -0.915717,0.47893 -1.640997,0.83792 -3.340747,1.56684 -5.063187,2.21777 -1.166931,0.44125 -2.347234,0.85778 -3.542934,1.21758 -0.797403,-3.33811 -1.252628,-6.77347 -1.37155,-10.20437 1.372158,-0.26114 2.724259,-0.6256 4.012341,-1.13836 1.200157,-0.47772 2.355946,-1.00831 3.466962,-1.66876 0.856763,-0.50992 1.640998,-1.09947 2.400719,-1.7429 -0.576578,0.17302 -1.147483,0.35798 -1.726087,0.52228 -0.823335,0.2342 -1.655179,0.41856 -2.492088,0.59664 -1.860405,0.39586 -3.767001,0.57921 -5.676636,0.62905 0.04802,-1.63067 0.202187,-3.26194 0.479941,-4.86647 0.150729,-0.87054 0.334683,-1.73034 0.543353,-2.58893 0.200566,-0.82657 0.473661,-1.63066 0.716164,-2.44427 -2.392818,2.81259 -3.841758,6.27772 -4.54374,9.88528 -0.34461,-0.0119 -0.688814,-0.0259 -1.032411,-0.044 -1.839943,-0.095 -3.676645,-0.31381 -5.493695,-0.61102 -1.230951,-0.20137 -2.461497,-0.43091 -3.67705,-0.71738 0.97852,-3.28928 2.301651,-6.49166 3.914285,-9.52285 1.319079,0.46009 2.672193,0.8205 4.044148,1.02026 1.27856,0.18598 2.544357,0.3051 3.836896,0.28809 0.996754,-0.013 1.97102,-0.13128 2.950351,-0.30855 -0.585694,-0.13858 -1.172401,-0.26398 -1.75607,-0.41045 -0.829818,-0.20888 -1.642416,-0.46536 -2.456026,-0.72954 -1.80915,-0.58711 -3.552254,-1.38148 -5.230731,-2.29314 0.856763,-1.38837 1.805705,-2.72365 2.848853,-3.97506 0.56584,-0.67849 1.155384,-1.33043 1.765187,-1.97042 0.586707,-0.61507 1.225481,-1.17524 1.842779,-1.7589 -3.478915,1.23925 -6.466341,3.51599 -8.877594,6.28887 -0.292746,-0.18254 -0.584074,-0.3673 -0.872565,-0.55409 -1.545577,-1.00162 -3.026932,-2.1098 -4.451966,-3.27592 -0.965555,-0.7895 -1.916726,-1.60372 -2.82596,-2.45967 2.492696,-2.36 5.24086,-4.47223 8.15353,-6.29131 0.912273,1.05794 1.902139,2.04801 2.990262,2.907 1.013772,0.80044 2.050842,1.53646 3.178876,2.16794 0.869323,0.48703 1.772277,0.87176 2.708861,1.20765 -0.437599,-0.41268 -0.883099,-0.81462 -1.315229,-1.23338 -0.614057,-0.59623 -1.189824,-1.22426 -1.76235,-1.85979 -1.27309,-1.41309 -2.383904,-2.97365 -3.381468,-4.6025 1.435569,-0.77349 2.924622,-1.45542 4.452776,-2.01701 0.829413,-0.30469 1.666321,-0.57495 2.513765,-0.82374 0.815839,-0.23946 1.649304,-0.40518 2.475475,-0.6019 -3.632074,-0.66632 -7.357342,-0.18841 -10.832002,1.00749 -0.162277,-0.3047 -0.322932,-0.6098 -0.479131,-0.91592 -0.837719,-1.64059 -1.566849,-3.34074 -2.217778,-5.06278 -0.441246,-1.16693 -0.857776,-2.34723 -1.21758,-3.54334 3.338114,-0.7974 6.773471,-1.25242 10.204372,-1.37155 0.260939,1.37216 0.625605,2.72446 1.138366,4.01275 0.477915,1.19975 1.008302,2.35594 1.669361,3.46696 0.509317,0.85676 1.09886,1.641 1.742293,2.40031 -0.173013,-0.57617 -0.357778,-1.14707 -0.522282,-1.72608 -0.233792,-0.82334 -0.418556,-1.65478 -0.596635,-2.49168 -0.396068,-1.86061 -0.579616,-3.76721 -0.629251,-5.67684 1.630665,0.048 3.261938,0.20218 4.866672,0.47994 0.870944,0.15073 1.730341,0.33509 2.588927,0.54376 0.826171,0.20016 1.630665,0.47366 2.444478,0.71616 -2.812589,-2.39322 -6.27793,-3.84176 -9.885288,-4.54415 0.01175,-0.34461 0.02593,-0.6888 0.04376,-1.0324 0.09502,-1.83954 0.313815,-3.67624 0.611018,-5.4937 0.201377,-1.23095 0.430914,-2.46109 0.717379,-3.67705 3.289492,0.97852 6.492071,2.30206 9.523053,3.91449 -0.460087,1.31908 -0.820701,2.6724 -1.020456,4.04435 -0.18598,1.27816 -0.305104,2.54435 -0.288087,3.83689 0.01297,0.99676 0.13128,1.97062 0.308548,2.94995 0.138979,-0.58529 0.263978,-1.1724 0.410654,-1.75567 0.209278,-0.83022 0.465355,-1.64241 0.729333,-2.45643 0.587112,-1.80934 1.381477,-3.55245 2.293344,-5.23072 1.388163,0.85676 2.723449,1.80611 3.974659,2.84885 0.679089,0.56625 1.331031,1.15538 1.970615,1.76559 0.615273,0.5865 1.175643,1.22548 1.758906,1.84237 -1.238851,-3.4785 -3.515786,-6.46593 -6.288667,-8.87759 0.182333,-0.29274 0.367097,-0.58367 0.553887,-0.87216 1.001819,-1.54598 2.109796,-3.02733 3.275918,-4.45237 0.789704,-0.96555 1.60372,-1.91632 2.460078,-2.82596 2.359592,2.4929 4.47182,5.24127 6.290896,8.15373 -1.057937,0.91228 -2.048005,1.90214 -2.906997,2.99006 -0.800442,1.01418 -1.53646,2.05085 -2.16794,3.17888 -0.486829,0.86972 -0.871957,1.77227 -1.207653,2.70926 0.412681,-0.4376 0.814624,-0.88351 1.233382,-1.31523 0.596027,-0.61446 1.224265,-1.18982 1.86,-1.76275 1.413081,-1.27289 2.97365,-2.3837 4.602695,-3.38147 0.773294,1.43557 1.45522,2.92463 2.016806,4.45278 0.304699,0.82981 0.574957,1.66631 0.823538,2.51416 0.239666,0.81544 0.405184,1.6489 0.601901,2.47507 0.666326,-3.63167 0.188614,-7.35693 -1.007491,-10.83199 0.304699,-0.16228 0.609803,-0.32293 0.91592,-0.47913 1.640997,-0.83772 3.34054,-1.56645 5.06258,-2.21738 1.16713,-0.44124 2.34764,-0.85777 3.54334,-1.21758 0.7976,3.33812 1.25242,6.77307 1.37175,10.20417 -1.37216,0.26094 -2.72426,0.6256 -4.01254,1.13857 -1.20057,0.47791 -2.35635,1.00789 -3.46737,1.66895 -0.856763,0.50972 -1.640998,1.09927 -2.400313,1.74229 0.576172,-0.1726 1.147077,-0.35777 1.726288,-0.52187 0.823133,-0.2342 1.654775,-0.41856 2.491685,-0.59664 1.8604,-0.39607 3.7672,-0.57961 5.67684,-0.62925 -0.0478,1.63067 -0.20219,3.26194 -0.47994,4.86667 -0.15053,0.87054 -0.33489,1.73034 -0.54376,2.58893 -0.20057,0.82617 -0.47366,1.63067 -0.71617,2.44448 2.39323,-2.813 3.84176,-6.27793 4.54435,-9.88529 0.34441,0.0118 0.68861,0.0259 1.03241,0.0438 1.83995,0.095 3.67625,0.31341 5.4933,0.61102 1.23115,0.20138 2.461696,0.43091 3.677246,0.71738 -0.97852,3.28929 -2.301846,6.49187 -3.914286,9.52265 -1.31928,-0.46009 -2.67219,-0.8203 -4.04415,-1.02006 -1.27856,-0.18638 -2.54476,-0.3051 -3.8371,-0.28808 -0.99675,0.0128 -1.97081,0.13128 -2.95015,0.30855 0.5855,0.13857 1.17241,0.26397 1.75567,0.41065 0.83043,0.20887 1.64242,0.46495 2.45643,0.72933 1.80935,0.58712 3.55205,1.38148 5.23074,2.29335 -0.85677,1.38836 -1.80612,2.72365 -2.84886,3.97466 -0.56604,0.67868 -1.15498,1.33103 -1.76539,1.97021 -0.58671,0.61567 -1.22548,1.17564 -1.84238,1.75931 3.47851,-1.23926 6.46574,-3.51619 8.87761,-6.28908 0.29234,0.18234 0.58366,0.3671 0.87215,0.55389 1.545986,1.00223 3.027336,2.1098 4.452566,3.27592 0.96556,0.79011 1.91632,1.60413 2.82576,2.46008 -2.4929,2.35919 -5.24126,4.47141 -8.153726,6.29069 z"
       id="path7"
       style="fill:#006497;fill-opacity:1" />
    <path
       inkscape:connector-curvature="0"
       d="m 76.563775,957.39912 c -0.1017,-0.95138 -0.35048,-1.85838 -0.72183,-2.69955 1.99654,-1.07839 3.94568,-2.24776 5.82999,-3.51092 1.790109,-1.20016 3.554889,-2.47851 5.131669,-3.95177 -2.55449,0.77877 -5.010109,1.93375 -7.372739,3.16875 -1.55226,0.81199 -3.0788,1.67544 -4.5715,2.59339 -0.55287,-0.75567 -1.2198,-1.42281 -1.974662,-1.9767 1.190022,-1.93273 2.292942,-3.91996 3.293952,-5.95641 0.95015,-1.93456 1.83953,-3.92401 2.46858,-5.98843 -1.82292,1.95198 -3.37235,4.18009 -4.80042,6.43068 -0.938206,1.47913 -1.827991,2.98946 -2.661862,4.53058 -0.840758,-0.37196 -1.747764,-0.62156 -2.698733,-0.72407 0.06382,-2.26863 0.02614,-4.54131 -0.125607,-6.80548 -0.144448,-2.14971 -0.369123,-4.31744 -0.856763,-6.41974 -0.603117,2.60169 -0.830223,5.30609 -0.941649,7.96917 -0.07334,1.75039 -0.08894,3.50363 -0.04032,5.25484 -0.951576,0.10149 -1.858581,0.35048 -2.699338,0.72183 -1.078603,-1.99675 -2.247762,-3.94569 -3.51133,-5.8306 -1.199752,-1.7897 -2.478514,-3.55449 -3.951765,-5.13126 0.778764,2.55448 1.934148,5.01011 3.169151,7.37253 0.811787,1.55267 1.675033,3.079 2.592979,4.5717 -0.755467,0.55308 -1.422401,1.21961 -1.976288,1.97467 -1.932731,-1.19003 -3.919958,-2.29335 -5.956821,-3.29435 -1.934149,-0.94996 -3.92401,-1.83914 -5.988021,-2.46798 1.951167,1.82292 4.180087,3.37215 6.43028,4.80002 1.479329,0.93861 2.989857,1.8288 4.530976,2.66267 -0.372162,0.84055 -0.621553,1.74736 -0.724065,2.69853 -2.268628,-0.0642 -4.541308,-0.0263 -6.80548,0.1254 -2.150112,0.14445 -4.317849,0.36912 -6.419744,0.85676 2.601285,0.60312 5.305689,0.83023 7.96917,0.94206 1.7506,0.0731 3.503631,0.0887 5.255041,0.0399 0.101499,0.95137 0.350485,1.85838 0.721837,2.69914 -1.99675,1.0786 -3.945687,2.24796 -5.830606,3.51133 -1.790106,1.20035 -3.554887,2.47851 -5.131259,3.95196 2.554081,-0.77856 5.010109,-1.93435 7.372538,-3.16895 1.552666,-0.81199 3.078997,-1.67543 4.571696,-2.59338 0.553077,0.75547 1.219605,1.4224 1.974667,1.97609 -1.190432,1.93293 -2.293548,3.92016 -3.294354,5.95702 -0.949955,1.93455 -1.839132,3.92401 -2.468383,5.98802 1.82333,-1.95117 3.372148,-4.17968 4.800423,-6.43028 0.938611,-1.47913 1.828396,-2.98986 2.662266,-4.53077 0.840758,0.37196 1.747358,0.62135 2.698529,0.72386 -0.06402,2.26883 -0.02593,4.54131 0.12581,6.80528 0.144448,2.15031 0.369123,4.31784 0.856358,6.41974 0.603522,-2.60129 0.830628,-5.30549 0.942054,-7.96917 0.07314,-1.7506 0.08873,-3.50363 0.04032,-5.25504 0.951171,-0.1013 1.858176,-0.35028 2.698934,-0.72163 1.078602,1.99654 2.248169,3.94589 3.511329,5.82999 1.20056,1.79051 2.478309,3.5553 3.95177,5.13207 -0.778571,-2.55448 -1.933751,-5.01051 -3.168751,-7.37294 -0.81219,-1.55267 -1.67564,-3.07879 -2.593586,-4.5717 0.755466,-0.55307 1.422606,-1.2196 1.976486,-1.97446 1.93273,1.19023 3.92037,2.29334 5.95662,3.29415 1.93456,0.94995 3.92401,1.83913 5.98843,2.46838 -1.95157,-1.82292 -4.18009,-3.37215 -6.43048,-4.80022 -1.47933,-0.93881 -2.989859,-1.82839 -4.53058,-2.66247 0.37196,-0.84055 0.62156,-1.74735 0.72407,-2.69832 2.26843,0.0638 4.54131,0.0259 6.80507,-0.12581 2.14991,-0.14445 4.31765,-0.36913 6.41975,-0.85636 -2.60169,-0.60312 -5.30589,-0.83063 -7.96917,-0.94205 -1.74979,-0.0727 -3.50282,-0.0881 -5.25464,-0.0397 z"
       id="path9"
       style="fill:#9f020c;fill-opacity:1" />
    <g
       style="font-style:normal;font-variant:normal;font-weight:normal;font-stretch:normal;font-size:40px;line-height:125%;font-family:'Helvetica Neue';-inkscape-font-specification:'Helvetica Neue, Normal';text-align:start;letter-spacing:0px;word-spacing:0px;writing-mode:lr-tb;text-anchor:start;fill:#000000;fill-opacity:1;stroke:none;stroke-width:1px;stroke-linecap:butt;stroke-linejoin:miter;stroke-opacity:1"
       id="text4734" />
  </g>
</svg>
